# xmcd CD database file
#
# Track frame offsets:
#	150
#	24275
#	57087
#	89455
#	122275
#	164870
#	198475
#
# Disc length: 3238 seconds
#
# Revision: 0
# Processed by: cddbd v1.5.1PL0 Copyright (c) Steve Scherf et al.
# Submitted via: CDex 1.51
#
DISCID=550ca407
DTITLE=Arca Jazz Quintet - Arca Jazz Quintet - Francesco e Cicci Santucci, Rosciglione, Beneventano, Di Leonardo
DYEAR=1900
DGENRE=Jazz
TTITLE0=Run
TTITLE1=Just The Blues
TTITLE2=Omaggio ad Horace Silver
TTITLE3=Runnin' Away
TTITLE4=Blue Tree
TTITLE5=Chet in The Sky
TTITLE6=Bros At Alexander Platz
EXTD=
EXTT0=
EXTT1=
EXTT2=
EXTT3=
EXTT4=
EXTT5=
EXTT6=
PLAYORDER=
